<svg xmlns="http://www.w3.org/2000/svg" xmlns:xlink="http://www.w3.org/1999/xlink" id="Layer_1" x="0px" y="0px" viewBox="0 0 254.1 254.1" style="enable-background:new 0 0 254.1 254.1;" xml:space="preserve"><style type="text/css">	.st0{fill:#008CE3;}</style><path class="st0" d="M127,254.1C56.8,254-0.1,197.1,0,127S57,0,127.1,0c70.2,0,127.2,57.2,127,127.4 C253.8,197.4,196.9,254.2,127,254.1z M140.3,184.6c12.8-0.1,22.9-3.2,31.7-9.5c3.9-2.8,4.3-5.8,0.9-9.2c-4.5-4.5-9-9-13.5-13.5 c-2.6-2.5-4.7-2.8-7.6-0.9c-5.9,3.9-12.4,5.5-19.3,4.8c-19.8-2-33.1-13.1-41-30.8c-5-11.2-5.1-22.6,2-33.3c1.6-2.5,1-4.8-1-6.9 c-4.6-4.6-9.1-9.2-13.7-13.7c-3.3-3.3-6.5-2.9-9.2,0.9c-9.2,13-11.1,27.4-8.2,42.7c3.7,19.7,13.9,35.7,28.9,48.7 C105,176.8,121.9,184.2,140.3,184.6z M179.1,95.4c0-3.3,0-6,0-8.6c0-4.2-1.8-6.1-5.9-6.1c-13.9,0-27.7,0-41.6,0 c-3.9,0-5.8,1.9-5.8,5.9c0,10.6,0,21.2,0,31.7c0,4,1.8,6,5.7,6c14,0.1,27.9,0.1,41.9,0c3.9,0,5.7-2,5.7-6c0-2.7,0-5.4,0-8.7 c5.1,3.4,9.7,6.5,14.5,9.8c0-11.5,0-22.3,0-33.7C188.7,89,184.2,92,179.1,95.4z"></path></svg>