<svg xmlns="http://www.w3.org/2000/svg" xmlns:xlink="http://www.w3.org/1999/xlink" id="Layer_1" x="0px" y="0px" viewBox="0 0 254.1 254.1" style="enable-background:new 0 0 254.1 254.1;" xml:space="preserve"><style type="text/css">	.st0{fill:#008CE3;}</style><path class="st0" d="M127.1,0C57,0,0.1,56.9,0,127s56.8,127,127,127.1c69.9,0.1,126.8-56.7,127.1-126.7C254.3,57.2,197.3,0,127.1,0z  M51.3,137.9c0-27.5,0-55.1,0-82.6c0-8,0.5-8.2,8.6-7.3c19.2,2.1,38.4,5.3,57.6,5.7c19.6,0.4,39.3-1.7,59-3.1 c7.5-0.5,15-1.7,22.5-2.9c4.7-0.7,6.4,0.9,6.3,5.7c-0.2,15.4-0.1,30.7-0.1,46.1s-0.1,30.7,0.1,46.1c0.1,4.8-1.6,6.4-6.3,5.7 c-14.8-2-29.6-4.4-44.5-5.2c-18.7-1-37.5-1.2-56.2-0.4c-14.1,0.6-28.1,3.2-42.1,5c-3.4,0.5-4.9-0.5-4.9-4 C51.3,143.8,51.3,140.8,51.3,137.9z M190.6,168.5c0,7.5-4.4,11.4-12.6,11.5c-8.8,0.1-11.3-3-11.4-14c-0.1-10.8,2.3-13.9,10.7-14 C187.3,151.8,190.6,155.9,190.6,168.5z M140.4,184.4c-7.8,0-14.8,0.1-21.8-0.2c-1,0-2.9-2.3-2.9-3.5c0-5.1,0.3-10.3,1.2-15.4 c0.8-4.5,2.8-8.4,8.4-8.5c5.6,0,10.6,1.2,12.1,7.4C138.8,170.3,139.3,176.6,140.4,184.4z M89.8,167.8c0.2,8.3-3.7,12.2-12.2,12.2 c-8.4,0-11.7-3.5-11.8-12.1c-0.1-11.1,3.2-16.2,10.6-16.2C86.1,151.7,89.3,155.5,89.8,167.8z M206.5,211c-2.3,0.1-4.3,0.3-6.2,0.3 c-48.8,0-97.5-0.1-146.2,0.1c-5.2,0-6.5-1.8-6.5-6.6c0-13.3-0.1-13,12.8-16.6c7.9-2.2,15.3-5.6,23.7-2.7c4.6,1.6,9.4,3.1,14.1,4.5 c1.3,0.3,2.8,0.9,4.1,0.6c24.8-5.4,22.9-5.5,32.9-3.6c5,0.9,10.3,3.7,13.1,4.4c9,2.2,12-2.5,20.4-5.2c5.2-1.6,11.4-1.3,16.9-0.6 c5.4,0.7,10.5,3.5,15.9,4.7c3.6,0.8,5.2,2.3,5,6C206.3,200.9,206.5,205.4,206.5,211z"></path></svg>