<svg xmlns="http://www.w3.org/2000/svg" xmlns:xlink="http://www.w3.org/1999/xlink" id="Layer_1" x="0px" y="0px" viewBox="0 0 254.1 254.1" style="enable-background:new 0 0 254.1 254.1;" xml:space="preserve"><style type="text/css">	.st0{fill:#008CE3;}</style><g>	<path class="st0" d="M152.8,122.7c-4.7-6.5-10.6-9.2-18.1-9.6c-5.2-0.2-10.3-0.3-15.5,0c-7.5,0.4-13.4,3.1-18.1,9.6  c-9.7,13.5-20.1,26.4-30.2,39.6c-7.7,10-7.5,10.9,4.8,15.5c16.7,6.4,34.2,8.2,56,8.8c7.1-0.8,18.3-1.4,29.2-3.4  c8.4-1.6,16.7-4.5,24.7-7.6c4.9-1.9,4.9-3.6,1.7-7.8C175.8,152.8,163.9,138,152.8,122.7z"></path>	<path class="st0" d="M127.1,0C57,0,0.1,56.9,0,127s56.8,127,127,127.1c69.9,0.1,126.8-56.7,127.1-126.7C254.3,57.2,197.3,0,127.1,0  z M70.4,41c37.7,0,75.2,0,113.2,0c-0.4,3.2,2.6,7-2.8,8.7c-0.6,0.2-0.6,2.7-0.6,4.1c0,16.7,0,33.5,0,50.2c0,1.8,0,3.6,0,5.7  c-2,0-3.6,0-5.9,0c0-19,0-38.1,0-57.5c-31.6,0-62.5,0-93.9,0c0,19.2,0,38.2-0.1,57.6c-2.1,0.1-3.7,0.2-5.7,0.3  c0-20.1,0-39.9,0-60.1C68.2,49.3,70,45,70.4,41z M110.1,88.5c-0.8,0.9-2.8,0.7-5.4,1.3c10.7-16.1,33.2-16.5,43.9-0.8  c-2.5-0.4-4.4-0.1-5.1-0.9C134.8,78.5,118.5,78.9,110.1,88.5z M142.5,92c-1.4-0.2-3.2,0.1-4.2-0.6c-8.1-6.1-14.8-6-23.1,0.4  c-1.1,0.8-2.8,0.7-4.2,1.1C119.2,80.5,134,80.2,142.5,92z M148.3,84.6c-11.4-13-32.6-12.5-43.5,0.9c-0.7,0.8-2.6,0.7-5,1.4  c10.5-19.8,40-20.7,52.6-3.1c-0.1,0.6-0.2,1.2-0.3,1.8C150.8,85.3,149,85.4,148.3,84.6z M213.4,135.3c-2.4,12.4-5.1,24.6-7.5,37  c-2.5,12.8-2.9,12.9-15.8,15.7c-5.3,1.1-10.4,3.3-15.5,5.4c-0.9,0.4-1.6,2.3-1.6,3.5c-0.2,5.3-0.1,10.6-0.1,16.2  c-30.5,0-60.6,0-91.3,0c0-4.8-0.2-9.6,0.1-14.3c0.2-4-0.5-6.5-5.1-7.4c-5.2-1-10.2-2.8-15.4-3.9c-9.1-1.8-10.8-3.5-12.7-12.5  c-2.6-12.8-5.3-25.6-8-38.4c-1.7-8.1,1-12,9.2-12.8c4.3-0.4,8.6-0.7,13-0.7c7.5-0.1,9.7,1.7,11.6,8.8c1.1,4.2,2.3,8.4,3.5,12.6  c0.7,0,1.2-0.2,1.7-0.3c-1.8-5.9-2.8-12.2-5.7-17.6c-1.6-3-6.3-4.4-10.6-7.2c-0.9-4.2,0.5-6.6,6.1-7.2c4-0.4,8-0.4,12-0.7  c5.2-0.4,8.2,1.8,9.2,6.9c0.5,2.4,1.4,4.7,2.2,7.4c2-8.1-2.5-14.7-11-16.6c-1-4.8,1.7-7.1,6-7.7c15.6-2.1,14.1-3.1,18.6,9.6  c1.8-0.4,3.7-0.9,5.7-1.4c0.1-1.5,0.2-2.8,0.2-4.1c0.1-7.5,1.7-9.8,9.1-11c3.7-0.6,7.7-0.6,11.4,0c7.2,1.3,8.8,3.5,8.8,10.7  c0,2.4-0.2,4.5,3.1,5.2c2.8,0.6,3.9,0,4.6-2.7c2.1-7.7,3.2-8.3,11.3-7.3c2.3,0.3,4.6,0.7,6.9,1.1c4.3,0.8,5.6,3.5,4.7,7.5  c-8.3,1.6-11.3,6-10.9,16.5c0.7-2.4,1.6-4.8,2.2-7.3c1.2-4.9,3.8-7.5,9.2-7.1c3.8,0.3,7.7,0.3,11.5,0.7c6,0.6,7.5,2.6,6.7,8.9  c-10.9,2.5-15.4,9.4-14.7,23.8c1.1-4.2,2.3-8.3,3.3-12.5c1.9-7.3,4.3-9.3,11.9-9.1c4.7,0.1,9.3,0.4,14,0.9  C212.2,124.6,214.8,128.2,213.4,135.3z"></path></g></svg>