<svg xmlns="http://www.w3.org/2000/svg" xmlns:xlink="http://www.w3.org/1999/xlink" id="Layer_1" x="0px" y="0px" viewBox="0 0 254.1 254.1" style="enable-background:new 0 0 254.1 254.1;" xml:space="preserve"><style type="text/css">	.st0{fill:#008CE3;}</style><path class="st0" d="M127.1,0C57,0,0.1,56.9,0,127s56.8,127,127,127.1c69.9,0.1,126.8-56.7,127.1-126.7C254.3,57.2,197.3,0,127.1,0z  M53,80.1c1.8-6.5,3.2-13.3,5.7-19.6c2.8-7.1,10.4-10,19.3-7.7c34.4,8.9,68.7,17.9,103,26.8c6.2,1.6,12.3,3.3,18.6,4.9 c-8.8,9.3-16.9,17.9-25.1,26.2c-0.9,0.9-3.4,0.9-4.9,0.5c-38-9.9-76-19.9-114-29.9C54.8,81.3,54.3,80.8,53,80.1z M124.7,136.9 c-4.4,1.6-5.4,4.1-5.3,8.5c0.3,9.2,0.1,18.3,0.1,27.5c-0.1,10.4-3.1,13.4-13.7,13.4c-9.6,0.1-19.2,0.1-28.8,0c-3.3,0-6,0.4-5.5,4.6 c1.3,10.9-3.8,12.2-15.4,10.5c0-12.8-0.1-25.3,0.3-37.7c0-1.1,3.7-2.8,5.8-3.1c4.1-0.5,8.3,0,9.1,5.4c0.4,3.2,0.5,6.5,0.8,10.3 c11.2,0,21.9,0.2,32.6-0.2c1.7-0.1,4.6-3,4.7-4.7c0.4-10,0.4-20.1,0-30.1c-0.1-1.9-2.3-4-4-5.4c-4.6-3.6-7.8-7.7-8.3-14.8 c11.9,3.1,22.9,6,35.8,9.4C129.4,133.4,127.3,136,124.7,136.9z M178.7,133.3c-0.4,1.3-4.8,2.3-7,1.7c-28.4-7.2-56.7-14.7-85-22.1 c-6.3-1.7-12.6-3.1-18.8-5C58.5,105,55.3,97.9,59,88c16.3,4.3,32.6,8.5,49,12.9c19,5,38.1,9.7,57,15.1c6.9,2,12.1,1.5,16.5-4.4 c0.6-0.8,1.7-1.2,3.9-2.7C183,118,181.3,125.8,178.7,133.3z M195.1,126c-0.5,1.6-3.5,2.4-5.3,3.6c-0.7-1.9-2.4-3.9-2.1-5.6 c1.4-7,3.2-13.9,5.4-20.7c0.5-1.4,3.4-3.2,4.8-3c1.5,0.2,2.5,2.8,3.2,3.8C198.9,112.2,197.4,119.2,195.1,126z"></path></svg>